<svg width="32" height="32" viewBox="0 0 32 32" fill="none" xmlns="http://www.w3.org/2000/svg">
<path d="M2 15.4167C2 9.09199 2 5.92965 3.96482 3.96482C5.92965 2 9.09199 2 15.4167 2H16.5833C22.908 2 26.0704 2 28.0352 3.96482C30 5.92965 30 9.09199 30 15.4167V16.5833C30 22.908 30 26.0704 28.0352 28.0352C26.0704 30 22.908 30 16.5833 30H15.4167C9.09199 30 5.92965 30 3.96482 28.0352C2 26.0704 2 22.908 2 16.5833L2 15.4167Z" fill="#FF0058"/>
<path d="M2 15.4167C2 9.09199 2 5.92965 3.96482 3.96482C5.92965 2 9.09199 2 15.4167 2H16.5833C22.908 2 26.0704 2 28.0352 3.96482C30 5.92965 30 9.09199 30 15.4167V16.5833C30 22.908 30 26.0704 28.0352 28.0352C26.0704 30 22.908 30 16.5833 30H15.4167C9.09199 30 5.92965 30 3.96482 28.0352C2 26.0704 2 22.908 2 16.5833L2 15.4167Z" fill="url(#paint0_radial)"/>
<path d="M2 15.4167C2 9.09199 2 5.92965 3.96482 3.96482C5.92965 2 9.09199 2 15.4167 2H16.5833C22.908 2 26.0704 2 28.0352 3.96482C30 5.92965 30 9.09199 30 15.4167V16.5833C30 22.908 30 26.0704 28.0352 28.0352C26.0704 30 22.908 30 16.5833 30H15.4167C9.09199 30 5.92965 30 3.96482 28.0352C2 26.0704 2 22.908 2 16.5833L2 15.4167Z" fill="url(#paint1_radial)"/>
<path fill-rule="evenodd" clip-rule="evenodd" d="M23.1759 16.5C23.1759 20.4632 19.9632 23.676 16 23.676C12.0368 23.676 8.82397 20.4632 8.82397 16.5C8.82397 12.5368 12.0368 9.32398 16 9.32398C19.9632 9.32398 23.1759 12.5368 23.1759 16.5ZM19.848 16.5C19.848 18.6252 18.1252 20.348 16 20.348C13.8748 20.348 12.1519 18.6252 12.1519 16.5C12.1519 14.3748 13.8748 12.6519 16 12.6519C18.1252 12.6519 19.848 14.3748 19.848 16.5Z" fill="white"/>
<path d="M23.696 10.572C24.6725 10.572 25.4641 9.78042 25.4641 8.80397C25.4641 7.82752 24.6725 7.03595 23.696 7.03595C22.7196 7.03595 21.928 7.82752 21.928 8.80397C21.928 9.78042 22.7196 10.572 23.696 10.572Z" fill="white"/>
<defs>
<radialGradient id="paint0_radial" cx="0" cy="0" r="1" gradientUnits="userSpaceOnUse" gradientTransform="translate(6.5 35) rotate(-60.6808) scale(23.9751 39.3145)">
<stop stop-color="#FFF173"/>
<stop offset="0.270718" stop-color="#FFBE40"/>
<stop offset="0.548131" stop-color="#FF6230"/>
<stop offset="1" stop-color="#FF0000" stop-opacity="0"/>
</radialGradient>
<radialGradient id="paint1_radial" cx="0" cy="0" r="1" gradientUnits="userSpaceOnUse" gradientTransform="translate(8 -3.5) rotate(62.5603) scale(29.2959 76.9249)">
<stop offset="0.149575" stop-color="#306CFF"/>
<stop offset="1" stop-color="#F21269" stop-opacity="0"/>
</radialGradient>
</defs>
</svg>
