<svg width="32" height="32" viewBox="0 0 32 32" fill="none" xmlns="http://www.w3.org/2000/svg">
<path d="M2 15.4167C2 9.09199 2 5.92965 3.96482 3.96482C5.92965 2 9.09199 2 15.4167 2H16.5833C22.908 2 26.0704 2 28.0352 3.96482C30 5.92965 30 9.09199 30 15.4167V16.5833C30 22.908 30 26.0704 28.0352 28.0352C26.0704 30 22.908 30 16.5833 30H15.4167C9.09199 30 5.92965 30 3.96482 28.0352C2 26.0704 2 22.908 2 16.5833L2 15.4167Z" fill="#2787F5"/>
<path d="M2 15.4167C2 9.09199 2 5.92965 3.96482 3.96482C5.92965 2 9.09199 2 15.4167 2H16.5833C22.908 2 26.0704 2 28.0352 3.96482C30 5.92965 30 9.09199 30 15.4167V16.5833C30 22.908 30 26.0704 28.0352 28.0352C26.0704 30 22.908 30 16.5833 30H15.4167C9.09199 30 5.92965 30 3.96482 28.0352C2 26.0704 2 22.908 2 16.5833L2 15.4167Z" fill="url(#paint0_linear)"/>
<path d="M7.30615 15.4575C12.4064 13.3406 15.8074 11.9451 17.5091 11.2708C22.3677 9.34569 23.3773 9.01127 24.0354 9.00011C24.1801 8.9978 24.5037 9.03196 24.7133 9.194C24.8903 9.33081 24.939 9.51563 24.9623 9.64535C24.9856 9.77506 25.0146 10.0706 24.9916 10.3015C24.7283 12.9368 23.589 19.3322 23.0094 22.2839C22.7642 23.5328 22.2813 23.9516 21.8138 23.9926C20.7978 24.0816 20.0263 23.3529 19.0422 22.7385C17.5024 21.7769 16.6325 21.1783 15.1378 20.24C13.4105 19.1557 14.5303 18.5597 15.5147 17.5857C15.7723 17.3308 20.2488 13.452 20.3354 13.1001C20.3463 13.0561 20.3563 12.892 20.254 12.8054C20.1517 12.7188 20.0007 12.7484 19.8918 12.772C19.7373 12.8054 17.2775 14.3542 12.5121 17.4186C11.8139 17.8753 11.1815 18.0979 10.6148 18.0862C9.99014 18.0734 8.78851 17.7497 7.89523 17.4731C6.79958 17.1338 5.92878 16.9545 6.0046 16.3783C6.0441 16.0781 6.47795 15.7712 7.30615 15.4575Z" fill="white"/>
<defs>
<linearGradient id="paint0_linear" x1="16" y1="2" x2="16" y2="29.7922" gradientUnits="userSpaceOnUse">
<stop stop-color="#2AABEE"/>
<stop offset="1" stop-color="#229ED9"/>
</linearGradient>
</defs>
</svg>
