<svg width="32" height="32" viewBox="0 0 32 32" fill="none" xmlns="http://www.w3.org/2000/svg">
<g clip-path="url(#clip0)">
<path d="M2 15.4167C2 9.09199 2 5.92965 3.96482 3.96482C5.92965 2 9.09199 2 15.4167 2H16.5833C22.908 2 26.0704 2 28.0352 3.96482C30 5.92965 30 9.09199 30 15.4167V16.5833C30 22.908 30 26.0704 28.0352 28.0352C26.0704 30 22.908 30 16.5833 30H15.4167C9.09199 30 5.92965 30 3.96482 28.0352C2 26.0704 2 22.908 2 16.5833L2 15.4167Z" fill="black"/>
<path fill-rule="evenodd" clip-rule="evenodd" d="M20.3872 12.9976C21.6066 13.828 23.1007 14.3166 24.7142 14.3166V11.3589C24.4088 11.359 24.1042 11.3287 23.8055 11.2683V13.5964C22.1921 13.5964 20.6983 13.1078 19.4785 12.2775V18.3131C19.4785 21.3324 16.9089 23.7799 13.7393 23.7799C12.5567 23.7799 11.4575 23.4393 10.5443 22.8553C11.5865 23.8703 13.0399 24.5 14.6478 24.5C17.8176 24.5 20.3873 22.0525 20.3873 19.0331V12.9976H20.3872ZM21.5081 10.0137C20.8849 9.36522 20.4757 8.52702 20.3872 7.60036V7.21997H19.526C19.7428 8.39767 20.4821 9.40387 21.5081 10.0137ZM12.549 20.5384C12.2009 20.1035 12.0127 19.5715 12.0135 19.0245C12.0135 17.6435 13.1889 16.5239 14.6389 16.5239C14.9091 16.5237 15.1777 16.5633 15.4353 16.6411V13.6174C15.1343 13.5781 14.8306 13.5614 14.5269 13.5676V15.9211C14.2692 15.8433 14.0005 15.8037 13.7302 15.8039C12.2802 15.8039 11.1049 16.9235 11.1049 18.3046C11.1049 19.2811 11.6924 20.1266 12.549 20.5384Z" fill="#EE1D52"/>
<path fill-rule="evenodd" clip-rule="evenodd" d="M19.4784 12.2775C20.6982 13.1078 22.192 13.5964 23.8054 13.5964V11.2683C22.9048 11.0857 22.1075 10.6373 21.508 10.0137C20.482 9.40387 19.7427 8.39767 19.5259 7.21997H17.2641V19.033C17.2589 20.4101 16.0856 21.5252 14.6387 21.5252C13.786 21.5252 13.0285 21.1381 12.5488 20.5384C11.6922 20.1266 11.1047 19.2811 11.1047 18.3046C11.1047 16.9235 12.28 15.8039 13.73 15.8039C14.0078 15.8039 14.2755 15.8451 14.5267 15.9211V13.5676C11.4128 13.6288 8.90845 16.0524 8.90845 19.0331C8.90845 20.521 9.53211 21.8699 10.5442 22.8554C11.4574 23.4394 12.5566 23.78 13.7392 23.78C16.9088 23.78 19.4784 21.3324 19.4784 18.3132V12.2775Z" fill="white"/>
<path fill-rule="evenodd" clip-rule="evenodd" d="M23.8055 11.2684V10.6388C22.9934 10.64 22.1972 10.4234 21.5082 10.0137C22.1181 10.6498 22.9213 11.0884 23.8055 11.2684ZM19.5261 7.22C19.5054 7.10746 19.4895 6.99416 19.4785 6.88039V6.5H16.3554V18.3131C16.3504 19.6902 15.1771 20.8052 13.7301 20.8052C13.3052 20.8052 12.9042 20.7092 12.549 20.5384C13.0287 21.1381 13.7862 21.5252 14.6388 21.5252C16.0856 21.5252 17.2591 20.4102 17.2642 19.033V7.22H19.5261ZM14.5269 13.5676V12.8974C14.266 12.8634 14.0029 12.8464 13.7395 12.8465C10.5695 12.8465 8 15.2941 8 18.3131C8 20.2059 9.00988 21.8741 10.5445 22.8553C9.53237 21.8698 8.9087 20.5209 8.9087 19.033C8.9087 16.0525 11.413 13.6289 14.5269 13.5676Z" fill="#69C9D0"/>
</g>
<defs>
<clipPath id="clip0">
<rect width="28" height="28" fill="white" transform="translate(2 2)"/>
</clipPath>
</defs>
</svg>
