<svg width="32" height="32" viewBox="0 0 32 32" fill="none" xmlns="http://www.w3.org/2000/svg">
<g clip-path="url(#clip0)">
<path d="M2 15.4167C2 9.09199 2 5.92965 3.96482 3.96482C5.92965 2 9.09199 2 15.4167 2H16.5833C22.908 2 26.0704 2 28.0352 3.96482C30 5.92965 30 9.09199 30 15.4167V16.5833C30 22.908 30 26.0704 28.0352 28.0352C26.0704 30 22.908 30 16.5833 30H15.4167C9.09199 30 5.92965 30 3.96482 28.0352C2 26.0704 2 22.908 2 16.5833L2 15.4167Z" fill="#9147FF"/>
<path d="M21.556 11.1054H20.0233V15.458H21.556V11.1054ZM17.3435 11.0868H15.8107V15.4413H17.3435V11.0868ZM10.8297 7L7 10.6273V23.6875H11.5958V27.3148L15.4259 23.6875H18.4909L25.3857 17.1574V7H10.8297ZM23.8533 16.4333L20.7895 19.3345H17.7248L15.0426 21.8738V19.3345H11.5958V8.4514H23.8533V16.4333Z" fill="#111111"/>
<path fill-rule="evenodd" clip-rule="evenodd" d="M23.8532 16.4333L20.7893 19.3345H17.7247L15.0425 21.8738V19.3345H11.5957V8.45139H23.8532V16.4333ZM20.0232 11.1054H21.5559V15.458H20.0232V11.1054ZM15.8106 11.0868H17.3434V15.4413H15.8106V11.0868Z" fill="white"/>
</g>
<defs>
<clipPath id="clip0">
<rect width="28" height="28" fill="white" transform="translate(2 2)"/>
</clipPath>
</defs>
</svg>
