<svg width="32" height="32" viewBox="0 0 32 32" fill="none" xmlns="http://www.w3.org/2000/svg">
<path d="M2 15.4167C2 9.09199 2 5.92965 3.96482 3.96482C5.92965 2 9.09199 2 15.4167 2H16.5833C22.908 2 26.0704 2 28.0352 3.96482C30 5.92965 30 9.09199 30 15.4167V16.5833C30 22.908 30 26.0704 28.0352 28.0352C26.0704 30 22.908 30 16.5833 30H15.4167C9.09199 30 5.92965 30 3.96482 28.0352C2 26.0704 2 22.908 2 16.5833L2 15.4167Z" fill="#2787F5"/>
<path fill-rule="evenodd" clip-rule="evenodd" d="M9.74231 11H7.70017C7.1167 11 7 11.2746 7 11.5774C7 12.1182 7.69233 14.8003 10.2236 18.3476C11.9111 20.7701 14.2887 22.0833 16.4522 22.0833C17.7503 22.0833 17.9109 21.7917 17.9109 21.2893V19.4583C17.9109 18.875 18.0339 18.7586 18.4449 18.7586C18.7478 18.7586 19.267 18.91 20.4786 20.078C21.8633 21.4623 22.0915 22.0833 22.8703 22.0833H24.9125C25.496 22.0833 25.7877 21.7917 25.6194 21.2161C25.4353 20.6424 24.7742 19.8101 23.8969 18.8235C23.4209 18.2611 22.707 17.6555 22.4906 17.3526C22.1878 16.9633 22.2743 16.7902 22.4906 16.4442C22.4906 16.4442 24.9787 12.9401 25.2383 11.7505C25.3681 11.3179 25.2383 11 24.6207 11H22.5786C22.0594 11 21.82 11.2746 21.6901 11.5774C21.6901 11.5774 20.6517 14.1081 19.1805 15.752C18.7045 16.2278 18.4882 16.3793 18.2285 16.3793C18.0987 16.3793 17.9108 16.2278 17.9108 15.7953V11.7505C17.9108 11.2314 17.7602 11 17.3274 11H14.1183C13.7938 11 13.5987 11.2409 13.5987 11.4693C13.5987 11.9614 14.3342 12.0749 14.4101 13.4592V16.4658C14.4101 17.125 14.291 17.2445 14.0314 17.2445C13.3391 17.2445 11.6551 14.7025 10.6563 11.7937C10.4606 11.2284 10.2642 11 9.74231 11Z" fill="white"/>
</svg>
