<svg width="32" height="32" viewBox="0 0 32 32" fill="none" xmlns="http://www.w3.org/2000/svg">
<path d="M2 15.4167C2 9.09199 2 5.92965 3.96482 3.96482C5.92965 2 9.09199 2 15.4167 2H16.5833C22.908 2 26.0704 2 28.0352 3.96482C30 5.92965 30 9.09199 30 15.4167V16.5833C30 22.908 30 26.0704 28.0352 28.0352C26.0704 30 22.908 30 16.5833 30H15.4167C9.09199 30 5.92965 30 3.96482 28.0352C2 26.0704 2 22.908 2 16.5833L2 15.4167Z" fill="#FF1F00"/>
<path d="M21.55 15.7402C21.75 15.8557 21.75 16.1443 21.55 16.2598L11.95 21.8024C11.75 21.9178 11.5 21.7735 11.5 21.5426L11.5 10.4574C11.5 10.2265 11.75 10.0822 11.95 10.1976L21.55 15.7402Z" fill="white"/>
</svg>
